<?xml version="1.0" standalone="no"?>
<!DOCTYPE svg PUBLIC "-//W3C//DTD SVG 20010904//EN"
 "http://www.w3.org/TR/2001/REC-SVG-20010904/DTD/svg10.dtd">
<svg version="1.0" xmlns="http://www.w3.org/2000/svg"
 width="512.000000pt" height="512.000000pt" viewBox="0 0 512.000000 512.000000"
 preserveAspectRatio="xMidYMid meet">
<metadata>
Created by potrace 1.14, written by Peter Selinger 2001-2017
</metadata>
<g transform="translate(0.000000,512.000000) scale(0.100000,-0.100000)"
fill="#000000" stroke="none">
<path d="M2435 5065 c-66 -29 -136 -60 -155 -69 -426 -194 -1123 -425 -1460
-482 -14 -2 -45 -9 -70 -14 -25 -5 -58 -12 -75 -15 -56 -11 -150 -27 -170 -30
-75 -10 -113 -16 -135 -21 -14 -2 -45 -7 -70 -9 -25 -3 -56 -7 -69 -10 -13 -2
-56 -7 -95 -11 -39 -4 -78 -8 -86 -10 -8 -1 -23 -3 -34 -3 -17 -1 -18 -14 -11
-308 3 -170 8 -335 10 -368 10 -158 16 -241 20 -284 3 -25 8 -68 11 -96 2 -27
9 -81 14 -120 6 -38 12 -86 15 -105 3 -31 33 -197 50 -285 48 -248 188 -638
320 -890 181 -348 335 -574 574 -845 140 -158 371 -379 510 -488 19 -15 57
-45 85 -68 245 -196 670 -443 881 -512 l71 -23 94 36 c537 205 1215 736 1620
1272 33 43 63 83 67 88 65 82 232 353 314 510 186 360 337 826 384 1195 3 25
10 77 15 115 5 39 12 97 16 130 3 33 7 74 9 90 2 17 6 80 10 140 4 61 9 130
10 155 2 25 7 183 10 353 7 294 6 307 -11 308 -11 0 -28 2 -39 3 -11 2 -47 6
-80 10 -50 5 -130 16 -230 31 -11 2 -42 6 -70 10 -62 8 -102 14 -135 20 -14 3
-36 8 -50 10 -14 3 -41 8 -60 11 -58 9 -435 93 -487 109 -26 8 -104 31 -173
51 -191 55 -573 192 -725 259 -16 7 -75 32 -130 55 -55 24 -160 69 -233 101
-73 33 -134 59 -135 58 -1 0 -56 -24 -122 -54z m334 -1071 c167 -27 303 -70
441 -139 69 -34 199 -115 226 -140 7 -5 31 -26 55 -45 248 -199 441 -534 498
-867 26 -152 22 -388 -9 -533 -47 -220 -122 -386 -267 -590 -71 -100 -211
-231 -343 -322 -59 -40 -270 -153 -295 -156 -5 -1 -37 -11 -70 -22 -149 -49
-242 -63 -430 -64 -153 -1 -225 5 -311 25 -27 6 -59 13 -71 15 -53 10 -206 70
-295 115 -393 202 -673 575 -763 1019 -20 95 -29 366 -15 440 4 25 11 66 14
92 23 171 129 417 256 592 223 310 606 539 973 582 29 4 54 8 56 10 10 9 277
0 350 -12z"/>
<path d="M2300 3190 l0 -370 -370 0 -370 0 0 -260 0 -260 370 0 370 0 0 -370
0 -370 260 0 260 0 0 370 0 370 370 0 370 0 0 260 0 260 -370 0 -370 0 0 370
0 370 -260 0 -260 0 0 -370z"/>
</g>
</svg>
